<svg xmlns="http://www.w3.org/2000/svg" xmlns:xlink="http://www.w3.org/1999/xlink" version="1.1" x="0px" y="0px" viewBox="0 0 512 640" enable-background="new 0 0 512 512" xml:space="preserve"><g><path d="M317.002,238.736c-9.045,0.097-14.318-7.096-14.537-7.401l-9.754,6.99c0.916,1.278,9.326,12.412,24.111,12.412   c0.101,0,0.202,0,0.304-0.001c14.303-0.149,22.337-10.367,23.803-12.413l-9.758-6.986   C330.636,232.085,325.689,238.646,317.002,238.736z"/><path d="M406.555,371.344h-15.282V356.32h-12v15.022H363.99c-4.348,0-7.884,3.537-7.884,7.884v54.219   c0,4.347,3.536,7.884,7.884,7.884h21.041v21.954h12v-21.954h9.523c4.348,0,7.883-3.537,7.883-7.884v-54.219   C414.438,374.881,410.901,371.344,406.555,371.344z M402.438,429.329h-34.331v-45.985h11.165v7.299h12v-7.299h11.166V429.329z"/><rect x="238.693" y="413.572" width="12" height="49.711"/><rect x="427.756" y="190.59" width="12" height="24.896"/><path d="M439.756,172.879h-12c0-40.923-15.211-77.855-39.697-96.386l7.242-9.568C422.722,87.676,439.756,128.274,439.756,172.879z"/><rect x="144.953" y="199.712" width="12" height="53.115"/><rect x="144.953" y="266.018" width="12" height="18.26"/><path d="M459.269,361.688c-6.497-20.459-20.323-37-38.335-46.947l0.151-0.145l0.47-0.503c8.126-9.737,10.501-23.196,6.198-35.124   c-1.466-4.066-3.63-7.797-6.433-11.085l-5.766-6.767c-3.672-4.311-5.692-9.802-5.692-15.464v-34.785   c1.887-3.076,2.995-6.68,2.995-10.545v-3.902c0-2.438-0.455-4.765-1.248-6.931l1.234-18.66l0.014-0.396   c0-57.744-42.35-104.723-94.401-104.723h-5.348c-52.054,0-94.401,46.979-94.401,104.723l0.624,29.406h0.005   c0.029,4.789,1.689,9.19,4.44,12.702v33.111c0,5.662-2.022,11.154-5.694,15.464l-5.764,6.766   c-2.802,3.288-4.966,7.018-6.434,11.085c-4.295,11.908-1.934,25.341,6.157,35.073c-11.638,6.154-21.593,15.029-29.052,25.926   V56.749c0-3.283-1.966-6.203-5.008-7.437c-3.043-1.236-6.486-0.511-8.774,1.845L53.587,170.195   c-2.254,2.322-2.894,5.747-1.63,8.726c1.261,2.973,4.159,4.891,7.386,4.891c0.006,0,0.012,0,0.018,0l111.629-0.211v187.209v3.104   v89.369h12v-89.369v-3.104c0-1.865,0.286-3.713,0.851-5.49c8.121-25.566,29.638-43.975,56.154-48.038l23.271-3.566   c3.151-0.481,6.158-1.399,8.967-2.68v16.468c0,3.688,1.854,7.077,4.961,9.064c1.768,1.133,3.777,1.707,5.799,1.707   c1.529,0,3.066-0.33,4.509-0.994l31.163-14.352l31.163,14.352c1.442,0.664,2.979,0.994,4.51,0.994c2.021,0,4.031-0.574,5.798-1.707   c3.105-1.987,4.96-5.377,4.96-9.064v-14.472c1.085,0.278,2.188,0.512,3.312,0.684l23.271,3.566   c26.519,4.063,48.035,22.472,56.155,48.04c0.564,1.775,0.851,3.623,0.851,5.488v92.474h12v-92.474   C460.683,367.709,460.207,364.641,459.269,361.688z M68.764,171.794L170.99,66.546v105.055L68.764,171.794z M388.982,204.399   V188.17h3.625c4.549,0,8.25,3.701,8.25,8.25v3.902c0,4.549-3.701,8.25-8.25,8.25h-3.625V204.399z M339.476,283.956   c0.649,5.218,2.479,10.086,5.212,14.323c-3.031,3.246-10.646,8.611-27.868,8.611c-17.453,0-26.003-5.529-29.626-8.947   c2.617-4.159,4.371-8.906,5.004-13.987l1.361-10.94c5.138,1.314,10.452,2.01,15.851,2.01h12.249c5.671,0,11.177-0.748,16.44-2.14   L339.476,283.956z M321.657,263.023h-12.249c-19.512,0-37.791-11.083-47.708-28.922c-6.099-10.974-8.382-24.167-6.427-37.151   l1.336-8.875c13.063-0.827,46.558-5.783,60.481-34.487c6.14-12.655,13.187-20.542,19.843-22.207c1.208-0.3,2.471-0.097,3.556,0.577   c1.091,0.677,1.866,1.759,2.129,2.968c6.278,28.871,18.37,47.08,34.364,52.06V204.4   C376.982,236.726,352.164,263.023,321.657,263.023z M313.108,77.711h5.348c45.378,0,82.307,41.49,82.401,92.527l-0.495,7.482   c-2.392-0.995-5.01-1.55-7.755-1.55h-9.15c-17.572-2.493-25.78-28.47-29.112-43.795c-0.948-4.363-3.69-8.231-7.523-10.612   c-3.868-2.401-8.412-3.123-12.798-2.023c-10.458,2.615-19.787,12.241-27.729,28.609c-12.204,25.158-44.32,27.656-52.712,27.869   v-0.003l-13.392-0.045c-3.349,0-6.505,0.813-9.313,2.221l-0.17-8.021C230.739,119.272,267.691,77.711,313.108,77.711z    M243.407,195.163c-0.673,4.468-0.911,8.96-0.755,13.41h-2.461c-4.886,0-8.861-3.976-8.861-8.861v-2.681   c0-4.886,3.975-8.86,8.841-8.86l4.287,0.015L243.407,195.163z M261.449,301.854l-23.272,3.566   c-5.061,0.775-9.962,2.005-14.669,3.637l-2.212-2.65c-5.405-6.479-6.985-15.432-4.123-23.366c0.976-2.706,2.416-5.187,4.28-7.374   l5.764-6.768c5.52-6.479,8.559-14.732,8.559-23.245v-25.561c1.424,0.309,2.899,0.48,4.415,0.48h3.892   c1.405,6.808,3.791,13.353,7.129,19.358c7.2,12.954,18.081,22.967,30.771,28.924l-1.694,13.617   C279.057,292.373,271.311,300.343,261.449,301.854z M284.232,325.574v-14.902c4.168,2.686,9.889,5.281,17.562,6.814   L284.232,325.574z M353.095,325.574l-18.849-8.682c9.265-2.351,15.056-6.371,18.541-9.847c0.104,0.079,0.203,0.161,0.308,0.239   V325.574z M370.224,301.854c-9.86-1.511-17.607-9.479-18.84-19.379l-1.726-13.873c18.646-8.985,32.725-26.644,37.521-48.027h5.429   c1.819,0,3.575-0.264,5.255-0.716v25.796c0,8.511,3.039,16.767,8.559,23.245l5.766,6.769c1.863,2.187,3.304,4.667,4.278,7.373   c2.825,7.832,1.321,16.658-3.917,23.114l-3.413,3.25c-5.003-1.805-10.229-3.154-15.64-3.983L370.224,301.854z"/></g></svg>