<svg xmlns="http://www.w3.org/2000/svg" viewBox="0 0 96 120" x="0px" y="0px"><title>Artboard 22</title><path d="M87.6634,60.89l-4-6a1.994,1.994,0,0,0-2.2832-.7929l-9.4312,3.0658c.0139-.3889.05-.7707.05-1.1635a31.9717,31.9717,0,0,0-1.4726-9.5638l7.8827-9.76,4.48,2.9882a2,2,0,0,0,2.2187-3.3281l-6-4a1.9951,1.9951,0,0,0-2.666.4082l-7.6058,9.4178a27.861,27.861,0,0,0-4.623-6.7455A13.8168,13.8168,0,0,0,62.7224,23.2a15.8666,15.8666,0,0,0-6.7955-5.5433c.7983-3.3137,3.6266-5.6557,6.0729-5.6557a2,2,0,0,0,0-4c-4.5039,0-8.5978,3.6732-9.8727,8.4324a19.903,19.903,0,0,0-8.2542,0C42.598,11.6739,38.5041,8.0007,34,8.0007a2,2,0,0,0,0,4c2.4463,0,5.2746,2.342,6.0729,5.6557a15.8763,15.8763,0,0,0-6.7955,5.5414,13.8291,13.8291,0,0,0-1.4929,12.22,27.8587,27.8587,0,0,0-4.6218,6.7445l-7.6058-9.4178a1.998,1.998,0,0,0-2.666-.4082l-6,4A2,2,0,0,0,13.11,39.6642l4.48-2.9882,7.8827,9.76A31.9717,31.9717,0,0,0,24,56c0,.3925.0369.7741.05,1.1628L14.62,54.0976a2.0041,2.0041,0,0,0-2.2832.7929l-4,6a2,2,0,1,0,3.3281,2.2187l3.16-4.7382,9.6473,3.1357a30.6046,30.6046,0,0,0,3.1164,9.1471l-8.8419,7.1232a1.9973,1.9973,0,0,0-.461,2.5858l4,6.666a2,2,0,0,0,3.43-2.0586l-3.1035-5.1718,7.0947-5.7172C34.112,80.1386,40.6727,83.9994,48,83.9994s13.888-3.8608,18.2936-9.9183l7.0947,5.7172L70.2848,84.97a2,2,0,0,0,3.43,2.0586l4-6.666a1.9973,1.9973,0,0,0-.461-2.5858l-8.8419-7.1232a30.6068,30.6068,0,0,0,3.1164-9.1461l9.6473-3.1367,3.16,4.7382A2,2,0,0,0,87.6634,60.89ZM36.592,25.4379C38.86,22.0844,43.2305,20.0005,48,20.0005c4.7714,0,9.1424,2.0839,11.408,5.4374,1.408,2.0839,1.4735,4.1549,1.0731,6.6839A19.9364,19.9364,0,0,0,48,28a21.4463,21.4463,0,0,0-12.9085,4.4328A9.52,9.52,0,0,1,36.592,25.4379ZM28,56c0-12.4239,7.9083-22.67,18-23.8781V79.8779C35.9086,78.6694,28,68.4237,28,56Zm22,23.878V32.1218C60.0914,33.33,68,43.576,68,56S60.0914,78.6694,50,79.8779Z"/></svg>